<?xml version="1.0" encoding="utf-8"?>
<!-- Paper Plane icon by Arthur Shlain from Usefulicons.com -->
<svg xmlns="http://www.w3.org/2000/svg" xmlns:xlink="http://www.w3.org/1999/xlink" xml:space="preserve" version="1.1" x="0px" y="0px" viewBox="0 0 100 100" width="400px" height="400px"><path d="M43.096,56.904l14.606,34.081c0.395,0.921,1.3,1.515,2.298,1.515c0.019,0,0.038,0,0.058,0   c1.021-0.024,1.925-0.666,2.283-1.622l30-80c0.344-0.918,0.12-1.953-0.573-2.646c-0.693-0.694-1.728-0.917-2.646-0.573l-80,30   c-0.956,0.358-1.598,1.262-1.621,2.283c-0.023,1.021,0.576,1.953,1.515,2.355L43.096,56.904z M85.728,14.272L59.846,83.292   L47.965,55.571l21.303-21.303c0.977-0.976,0.977-2.559,0-3.535c-0.977-0.977-2.559-0.977-3.535,0L44.429,52.036L16.707,40.155   L85.728,14.272z" stroke="none"></path></svg>